<svg width="316" height="148" viewBox="0 0 316 148" fill="none" xmlns="http://www.w3.org/2000/svg">
<path d="M0.867188 65V1.01562H38.8359V13.3203H16.3799V27.9102H35.9355V39.1602H16.3799V65H0.867188ZM44.6684 65V1.01562H85.933V13.3203H59.5658V27.1191H82.0219V37.9736H59.5658V53.0908H86.5482V65H44.6684ZM92.2488 65V1.01562H133.513V13.3203H107.146V27.1191H129.602V37.9736H107.146V53.0908H134.129V65H92.2488ZM139.829 65V1.01562H155.342V52.6953H179.248V65H139.829ZM185.696 65V1.01562H201.384V65H185.696ZM210.82 65V1.01562H226.421L242.725 36.04C243.105 37.0068 243.472 38.0322 243.823 39.1162C244.204 40.2002 244.512 41.2109 244.746 42.1484H244.966C244.907 41.1523 244.878 40.127 244.878 39.0723C244.907 37.9883 244.922 36.9482 244.922 35.9521V1.01562H258.062V65H242.944L226.113 29.5801C225.732 28.6719 225.352 27.7197 224.971 26.7236C224.619 25.7275 224.326 24.7607 224.092 23.8232H223.872C223.931 24.8193 223.96 25.7861 223.96 26.7236C223.989 27.6318 224.004 28.5986 224.004 29.624V65H210.82ZM265.828 34.7217V31.2939C265.828 21.0693 268.215 13.3203 272.991 8.04688C277.795 2.77344 284.329 0.136719 292.59 0.136719C300.032 0.136719 305.701 1.96777 309.597 5.62988C313.523 9.2627 315.486 14.0527 315.486 20V22.0215H300.896V20.835C300.896 17.7588 300.149 15.415 298.655 13.8037C297.19 12.1924 294.993 11.3867 292.063 11.3867C288.84 11.3867 286.335 12.6904 284.548 15.2979C282.79 17.876 281.912 21.9043 281.912 27.3828V38.8965C281.912 44.1699 282.878 48.1982 284.812 50.9814C286.746 53.7354 289.455 55.1123 292.942 55.1123C294.7 55.1123 296.223 54.8779 297.512 54.4092C298.83 53.9111 300.017 53.1787 301.072 52.2119V41.4014H292.107V31.0742L315.705 31.0303V57.1777C314.182 59.0234 311.516 60.9424 307.707 62.9346C303.899 64.8975 298.918 65.8789 292.766 65.8789C284.534 65.8789 277.986 63.2422 273.122 57.9688C268.259 52.6953 265.828 44.9463 265.828 34.7217ZM0.867188 147V83.0156H16.3799V134.695H40.2861V147H0.867188ZM45.723 123.665V83.0156H61.1479V125.818C61.1479 129.979 61.8363 132.923 63.2133 134.651C64.6195 136.38 66.6264 137.244 69.2338 137.244C71.7826 137.244 73.7455 136.38 75.1225 134.651C76.5287 132.923 77.2318 129.979 77.2318 125.818V83.0156H92.7006V123.665C92.7006 131.897 90.6645 137.991 86.5922 141.946C82.5199 145.901 76.807 147.879 69.4535 147.879C61.8656 147.879 56.0062 145.901 51.8754 141.946C47.7738 137.991 45.723 131.897 45.723 123.665ZM100.467 116.722V113.294C100.467 102.22 102.898 94.2656 107.762 89.4316C112.625 84.5684 118.938 82.1367 126.702 82.1367C134.202 82.1367 140.032 83.9238 144.192 87.498C148.352 91.0723 150.432 96.4775 150.432 103.714V107.581H135.755V102.308C135.755 99.2607 135.022 96.9316 133.557 95.3203C132.093 93.709 129.91 92.9033 127.01 92.9033C123.816 92.9033 121.341 94.1777 119.583 96.7266C117.825 99.2754 116.946 103.318 116.946 108.855V121.16C116.946 126.727 117.84 130.813 119.627 133.421C121.443 136.028 123.948 137.332 127.141 137.332C129.983 137.332 132.122 136.482 133.557 134.783C135.022 133.084 135.755 130.389 135.755 126.697V122.61H150.432V127.312C150.432 133.758 148.352 138.797 144.192 142.43C140.061 146.062 134.217 147.879 126.658 147.879C118.543 147.879 112.141 145.403 107.454 140.452C102.796 135.501 100.467 127.591 100.467 116.722ZM157.495 147V83.0156H173.008V107.098L190.41 83.0156H206.319L173.008 126.082V147H157.495ZM190.894 147L173.008 116.106L182.28 104.461L208.296 147H190.894ZM227.488 147V122.215L207.537 83.0156H224.324L234.563 103.67C234.885 104.344 235.164 104.959 235.398 105.516C235.662 106.072 235.925 106.673 236.189 107.317H236.365C236.599 106.673 236.834 106.072 237.068 105.516C237.332 104.959 237.639 104.344 237.991 103.67L248.098 83.0156H263.04L243.176 122.171V147H227.488ZM278.145 140.145C278.145 138.006 278.877 136.175 280.342 134.651C281.836 133.099 283.975 132.322 286.758 132.322C289.57 132.322 291.709 133.099 293.174 134.651C294.668 136.175 295.415 138.006 295.415 140.145C295.415 142.283 294.668 144.129 293.174 145.682C291.709 147.205 289.585 147.967 286.802 147.967C284.048 147.967 281.909 147.205 280.386 145.682C278.892 144.129 278.145 142.283 278.145 140.145ZM267.861 101.868V98.9678C267.861 93.958 269.604 89.9004 273.091 86.7949C276.577 83.6895 281.514 82.1367 287.9 82.1367C294.756 82.1367 299.971 83.5137 303.545 86.2676C307.148 88.9922 308.95 92.5957 308.95 97.0781C308.95 101.385 308.203 104.666 306.709 106.922C305.244 109.178 303.223 111.551 300.645 114.041C298.154 116.443 296.426 118.436 295.459 120.018C294.521 121.57 294.053 123.24 294.053 125.027V126.126H279.375V124.544C279.375 121.526 279.976 118.919 281.177 116.722C282.407 114.524 284.517 112.093 287.505 109.427C289.937 107.229 291.489 105.501 292.163 104.241C292.866 102.981 293.218 101.326 293.218 99.2754C293.218 97.1953 292.749 95.584 291.812 94.4414C290.874 93.2988 289.365 92.7275 287.285 92.7275C285.205 92.7275 283.652 93.4014 282.627 94.749C281.602 96.0967 281.089 98.1328 281.089 100.857V101.868H267.861Z" fill="black"/>
</svg>
